<svg  xmlns="http://www.w3.org/2000/svg">
<path  d="M8.80903 0.879249L9 0.875C11.3396 0.875 13.2623 2.71565 13.3708 5.05902L13.375 5.25C13.375 6.87186 12.0792 8.50367 10.1606 10.068C9.47374 10.5887 8.52426 10.5884 7.8202 10.0537C6.01896 8.58304 4.75539 7.03002 4.63251 5.45241L4.625 5.25C4.625 2.91038 6.46565 0.987675 8.80903 0.879249ZM9.00667 2.12417L8.85241 2.12841C7.18991 2.20545 5.875 3.57898 5.87452 5.22533L5.88012 5.37902C5.96553 6.47138 7.06661 7.82468 8.59327 9.07165C8.83334 9.25382 9.16532 9.2539 9.388 9.0856C11.0031 7.76828 12.125 6.3555 12.1252 5.26445L12.1216 5.1024C12.0445 3.43991 10.671 2.125 9.00667 2.12417ZM16.2146 10.0795C15.9504 9.08074 15.0446 8.37522 13.9997 8.375C13.6546 8.37493 13.3747 8.65469 13.3746 8.99987C13.3745 9.34505 13.6543 9.62493 13.9995 9.625L14.1047 9.63031C14.5554 9.67588 14.9305 10.0104 15.0209 10.4626L15.8542 14.6291L15.8706 14.7442C15.8937 15.0132 15.8115 15.2826 15.6383 15.4937C15.4405 15.7351 15.1448 15.875 14.8328 15.875H3.16723L3.05114 15.8685C2.78278 15.8384 2.53479 15.7049 2.36167 15.4937C2.16382 15.2524 2.08459 14.9351 2.1458 14.629L2.97909 10.4626L3.00491 10.3604C3.13788 9.92734 3.53941 9.62509 4.00051 9.625L4.08532 9.61928C4.39037 9.57784 4.62545 9.3163 4.62539 8.99988C4.62533 8.65471 4.34545 8.37494 4.00028 8.375C2.90793 8.3752 1.96755 9.14631 1.75336 10.2174L0.920071 14.3839L0.892818 14.5526C0.816286 15.1723 0.995991 15.7995 1.39499 16.2862C1.83027 16.8172 2.48067 17.125 3.16723 17.125H14.8328L14.9905 17.1196C15.6181 17.0763 16.2032 16.7763 16.605 16.2862C17.0403 15.7553 17.2146 15.0571 17.0799 14.3839L16.2466 10.2174L16.2146 10.0795ZM12.5417 13.1667C12.5417 12.8215 12.2618 12.5417 11.9167 12.5417H6.08334L5.99853 12.5474C5.69346 12.5888 5.45834 12.8503 5.45834 13.1667C5.45834 13.5118 5.73816 13.7917 6.08334 13.7917H11.9167L12.0015 13.786C12.3065 13.7446 12.5417 13.4831 12.5417 13.1667ZM9.10399 4.42306L8.99352 4.41672L8.89976 4.42266C8.48585 4.47229 8.16559 4.82515 8.16667 5.25213C8.16784 5.71196 8.54123 6.08394 9.00106 6.08336C9.46088 6.08278 9.83333 5.70985 9.83334 5.25002C9.83451 5.03054 9.74631 4.81657 9.58847 4.65933L9.50506 4.58661C9.38817 4.49767 9.24975 4.44122 9.10399 4.42306Z" />
</svg>
