<svg  viewBox="0 0 24 24"  xmlns="http://www.w3.org/2000/svg">
<path  d="M12 0.625C5.71734 0.625 0.625 5.71734 0.625 12C0.625 18.2814 5.71728 23.375 12 23.375C18.2827 23.375 23.375 18.2814 23.375 12C23.375 5.71734 18.2826 0.625 12 0.625ZM2.375 12C2.375 6.68384 6.68384 2.375 12 2.375C17.3161 2.375 21.625 6.68384 21.625 12C21.625 17.315 17.3161 21.625 12 21.625C6.68391 21.625 2.375 17.315 2.375 12ZM16.6585 9.92536C17.0002 9.58365 17.0002 9.02963 16.6585 8.68792C16.3168 8.34621 15.7628 8.34621 15.4211 8.68792L10.6524 13.4566L8.57626 11.3815C8.23448 11.0399 7.68046 11.04 7.33882 11.3818C6.99719 11.7236 6.99732 12.2776 7.3391 12.6192L10.0339 15.3128C10.3756 15.6544 10.9296 15.6543 11.2712 15.3127L16.6585 9.92536Z" />
</svg>
